.
..............................Site Info...........................

 -   http://www.scenetime.com  *_*    

Scenetime .Always on time . friendly online private torrent community ..

     We care to share . Join us on  http://www.scenetime.com 

    Be the first to get new release at  http://www.scenetime.com

        Seed back for speed


...................................NFO:.................................................[img]http://ecx.images-amazon.com/images/I/61lgHHvBktL._SL500_AA300_.jpg[/img]
 
http://www.imdb.com/title/tt2119474/


description:

When former black ops operative Tom Steele (Seagal) and his partner Manning (Austin) are assigned to decommission an old prison, they must oversee the arrival of two mysterious female prisoners. Before long, an elite force of mercenaries assault the prison in search of the new arrivals. As the true identities of the women are revealed, Steele realizes he's caught in the middle of something far bigger than he had imagined




Source-DISPOSABLE Thanks




file info
Format                                   : AVI
Format/Info                              : Audio Video Interleave
File size                                : 698 MiB
Duration                                 : 1h 37mn
Overall bit rate                         : 997 Kbps

Video
ID                                       : 0
Format                                   : MPEG-4 Visual
Format profile                           : Advanced Simple@L5
Format settings, BVOP                    : 1
Format settings, QPel                    : No
Format settings, GMC                     : No warppoints
Format settings, Matrix                  : Default (H.263)
Muxing mode                              : Packed bitstream
Codec ID                                 : XVID
Codec ID/Hint                            : XviD
Duration                                 : 1h 37mn
Bit rate                                 : 606 Kbps
Width                                    : 720 pixels
Height                                   : 400 pixels
Display aspect ratio                     : 16:9
Frame rate                               : 23.976 fps
Color space                              : YUV
Chroma subsampling                       : 4:2:0
Bit depth                                : 8 bits
Scan type                                : Progressive
Compression mode                         : Lossy
Bits/(Pixel*Frame)                       : 0.088
Stream size                              : 424 MiB (61%)
Writing library                          : XviD 1.2.1 (UTC 2008-12-04)

Audio
ID                                       : 1
Format                                   : AC-3
Format/Info                              : Audio Coding 3
Mode extension                           : CM (complete main)
Format settings, Endianness              : Big
Codec ID                                 : 2000
Duration                                 : 1h 37mn
Bit rate mode                            : Constant
Bit rate                                 : 384 Kbps
Channel(s)                               : 6 channels
Channel positions                        : Front: L C R, Side: L R, LFE
Sampling rate                            : 48.0 KHz
Bit depth                                : 16 bits
Compression mode                         : Lossy
Stream size                              : 269 MiB (39%)
Alignment                                : Aligned on interleaves
Interleave, duration                     : 64 ms (1.53 video frames)
Interleave, preload duration             : 192 ms
Title                                    : VTS 02 1 T80 3_2ch 448Kbps DELAY 0ms_audio


Interleave, duration                     : 64 ms (1.60 video frames)
Interleave, preload duration             : 192 ms
Title                                    : VTS 01 1 T81 3_2ch 448Kbps DELAY 0ms_audio










Encoder - BallZac



screenies
[IMG]http://lookpic.com/O/i2/287/PwKTtF5.png[/IMG]

[IMG]http://lookpic.com/O/i2/1809/2dFtUZ7.png[/IMG]

[IMG]http://lookpic.com/O/i2/74/5Ckmk8l5.png[/IMG]



Greetz to CM8 Tragedy BBnRG dopeonarope MrSeeN jiinx UNiQUE and to all those who make this possible ;)
And All the ballwashers out there

[IMG]http://i40.photobucket.com/albums/e243/tragedy42069/NewEra1.png[/IMG]